G04 EAGLE Gerber RS-274X export*
G75*
%MOMM*%
%FSLAX34Y34*%
%LPD*%
%INTop Copper*%
%IPPOS*%
%AMOC8*
5,1,8,0,0,1.08239X$1,22.5*%
G01*
%ADD10C,1.879600*%
%ADD11P,2.034460X8X112.500000*%
%ADD12C,1.320800*%
%ADD13C,0.254000*%


D10*
X790702Y54610D03*
X816102Y54610D03*
X841502Y54610D03*
X866902Y54610D03*
X892302Y54610D03*
X917702Y54610D03*
X943102Y54610D03*
X765302Y54610D03*
X739902Y537210D03*
X765302Y537210D03*
X790702Y537210D03*
X816102Y537210D03*
X841502Y537210D03*
X866902Y537210D03*
X892302Y537210D03*
X714502Y537210D03*
X562102Y54610D03*
X587502Y54610D03*
X612902Y54610D03*
X638302Y54610D03*
X663702Y54610D03*
X689102Y54610D03*
X714502Y54610D03*
X536702Y54610D03*
X511302Y537210D03*
X536702Y537210D03*
X562102Y537210D03*
X587502Y537210D03*
X612902Y537210D03*
X638302Y537210D03*
X663702Y537210D03*
X485902Y537210D03*
X292862Y537210D03*
X318262Y537210D03*
X343662Y537210D03*
X369062Y537210D03*
X394462Y537210D03*
X419862Y537210D03*
X445262Y537210D03*
X267462Y537210D03*
D11*
X993902Y334010D03*
X968502Y334010D03*
X993902Y359410D03*
X968502Y359410D03*
X993902Y384810D03*
X968502Y384810D03*
X993902Y410210D03*
X968502Y410210D03*
X993902Y435610D03*
X968502Y435610D03*
X993902Y461010D03*
X968502Y461010D03*
X993902Y486410D03*
X968502Y486410D03*
X993902Y511810D03*
X968502Y511810D03*
X993902Y130810D03*
X968502Y130810D03*
X993902Y156210D03*
X968502Y156210D03*
X993902Y181610D03*
X968502Y181610D03*
X993902Y207010D03*
X968502Y207010D03*
X993902Y232410D03*
X968502Y232410D03*
X993902Y257810D03*
X968502Y257810D03*
X993902Y283210D03*
X968502Y283210D03*
X993902Y308610D03*
X968502Y308610D03*
D10*
X968502Y105410D03*
X993902Y105410D03*
X968502Y537210D03*
X993902Y537210D03*
X358902Y54610D03*
X384302Y54610D03*
X409702Y54610D03*
X435102Y54610D03*
X460502Y54610D03*
X485902Y54610D03*
X333502Y54610D03*
X308102Y54610D03*
X242062Y537210D03*
X216662Y537210D03*
D12*
X63246Y171831D02*
X63246Y158623D01*
X88646Y158623D02*
X88646Y171831D01*
X114046Y171831D02*
X114046Y158623D01*
X139446Y158623D02*
X139446Y171831D01*
X164846Y171831D02*
X164846Y158623D01*
X190246Y158623D02*
X190246Y171831D01*
X215646Y171831D02*
X215646Y158623D01*
X241046Y158623D02*
X241046Y171831D01*
X266446Y171831D02*
X266446Y158623D01*
X291846Y158623D02*
X291846Y171831D01*
X317246Y171831D02*
X317246Y158623D01*
X342646Y158623D02*
X342646Y171831D01*
X368046Y171831D02*
X368046Y158623D01*
X393446Y158623D02*
X393446Y171831D01*
X418846Y171831D02*
X418846Y158623D01*
X444246Y158623D02*
X444246Y171831D01*
X469646Y171831D02*
X469646Y158623D01*
X495046Y158623D02*
X495046Y171831D01*
X520446Y171831D02*
X520446Y158623D01*
X850646Y158623D02*
X850646Y171831D01*
X850646Y387223D02*
X850646Y400431D01*
X520446Y400431D02*
X520446Y387223D01*
X495046Y387223D02*
X495046Y400431D01*
X469646Y400431D02*
X469646Y387223D01*
X444246Y387223D02*
X444246Y400431D01*
X418846Y400431D02*
X418846Y387223D01*
X393446Y387223D02*
X393446Y400431D01*
X368046Y400431D02*
X368046Y387223D01*
X342646Y387223D02*
X342646Y400431D01*
X317246Y400431D02*
X317246Y387223D01*
X291846Y387223D02*
X291846Y400431D01*
X266446Y400431D02*
X266446Y387223D01*
X241046Y387223D02*
X241046Y400431D01*
X215646Y400431D02*
X215646Y387223D01*
X190246Y387223D02*
X190246Y400431D01*
X164846Y400431D02*
X164846Y387223D01*
X139446Y387223D02*
X139446Y400431D01*
X114046Y400431D02*
X114046Y387223D01*
X88646Y387223D02*
X88646Y400431D01*
X63246Y400431D02*
X63246Y387223D01*
X545846Y171831D02*
X545846Y158623D01*
X571246Y158623D02*
X571246Y171831D01*
X596646Y171831D02*
X596646Y158623D01*
X622046Y158623D02*
X622046Y171831D01*
X647446Y171831D02*
X647446Y158623D01*
X672846Y158623D02*
X672846Y171831D01*
X698246Y171831D02*
X698246Y158623D01*
X723646Y158623D02*
X723646Y171831D01*
X749046Y171831D02*
X749046Y158623D01*
X774446Y158623D02*
X774446Y171831D01*
X799846Y171831D02*
X799846Y158623D01*
X825246Y158623D02*
X825246Y171831D01*
X545846Y387223D02*
X545846Y400431D01*
X571246Y400431D02*
X571246Y387223D01*
X596646Y387223D02*
X596646Y400431D01*
X622046Y400431D02*
X622046Y387223D01*
X647446Y387223D02*
X647446Y400431D01*
X672846Y400431D02*
X672846Y387223D01*
X698246Y387223D02*
X698246Y400431D01*
X723646Y400431D02*
X723646Y387223D01*
X749046Y387223D02*
X749046Y400431D01*
X774446Y400431D02*
X774446Y387223D01*
X799846Y387223D02*
X799846Y400431D01*
X825246Y400431D02*
X825246Y387223D01*
D13*
X520573Y139700D02*
X495046Y165227D01*
X520573Y139700D02*
X622300Y139700D01*
X654050Y107950D01*
X732790Y107950D01*
X737362Y107950D02*
X790702Y54610D01*
X737362Y107950D02*
X732790Y107950D01*
X501523Y133350D02*
X469646Y165227D01*
X717550Y101600D02*
X734695Y84455D01*
X749300Y69850D01*
X603250Y133350D02*
X501523Y133350D01*
X603250Y133350D02*
X635000Y101600D01*
X717550Y101600D01*
X764540Y54610D02*
X765302Y54610D01*
X764540Y54610D02*
X749300Y69850D01*
X463169Y209550D02*
X418846Y165227D01*
X930402Y130810D02*
X968502Y130810D01*
X930402Y130810D02*
X851662Y209550D01*
X463169Y209550D01*
X794512Y127000D02*
X866902Y54610D01*
X711073Y127000D02*
X672846Y165227D01*
X711073Y127000D02*
X794512Y127000D01*
X692023Y120650D02*
X647446Y165227D01*
X692023Y120650D02*
X781050Y120650D01*
X841502Y60198D01*
X841502Y54610D01*
X816102Y54610D02*
X756412Y114300D01*
X672973Y114300D02*
X622046Y165227D01*
X672973Y114300D02*
X756412Y114300D01*
X203073Y127000D02*
X164846Y165227D01*
X565912Y127000D02*
X638302Y54610D01*
X565912Y127000D02*
X203073Y127000D01*
X546862Y120650D02*
X612902Y54610D01*
X184023Y120650D02*
X139446Y165227D01*
X184023Y120650D02*
X546862Y120650D01*
X164973Y114300D02*
X114046Y165227D01*
X527812Y114300D02*
X587502Y54610D01*
X527812Y114300D02*
X164973Y114300D01*
X508762Y107950D02*
X562102Y54610D01*
X145923Y107950D02*
X88646Y165227D01*
X145923Y107950D02*
X508762Y107950D01*
X127383Y101090D02*
X63246Y165227D01*
X127383Y101090D02*
X490222Y101090D01*
X536702Y54610D01*
X368046Y393827D02*
X412369Y438150D01*
X857250Y438150D01*
X928880Y509780D01*
X966472Y509780D02*
X968502Y511810D01*
X966472Y509780D02*
X928880Y509780D01*
X431419Y431800D02*
X393446Y393827D01*
X431419Y431800D02*
X863600Y431800D01*
X926719Y494919D01*
X927100Y495300D01*
X981329Y499237D02*
X993902Y511810D01*
X981329Y499237D02*
X962025Y499237D01*
X931037Y499237D01*
X927100Y495300D01*
X450469Y425450D02*
X418846Y393827D01*
X450469Y425450D02*
X869950Y425450D01*
X930910Y486410D02*
X968502Y486410D01*
X930910Y486410D02*
X869950Y425450D01*
X494919Y419100D02*
X469646Y393827D01*
X876300Y419100D02*
X930910Y473710D01*
X876300Y419100D02*
X494919Y419100D01*
X981202Y473710D02*
X993902Y486410D01*
X981202Y473710D02*
X930910Y473710D01*
X930910Y461010D02*
X968502Y461010D01*
X513969Y412750D02*
X495046Y393827D01*
X882650Y412750D02*
X930910Y461010D01*
X882650Y412750D02*
X513969Y412750D01*
X323469Y247650D02*
X241046Y165227D01*
X889000Y247650D02*
X929640Y207010D01*
X889000Y247650D02*
X323469Y247650D01*
X929640Y207010D02*
X968502Y207010D01*
X304419Y254000D02*
X215646Y165227D01*
X895350Y254000D02*
X929640Y219710D01*
X895350Y254000D02*
X304419Y254000D01*
X981202Y219710D02*
X993902Y207010D01*
X981202Y219710D02*
X929640Y219710D01*
X342519Y241300D02*
X266446Y165227D01*
X342519Y241300D02*
X882650Y241300D01*
X929640Y194310D01*
X981202Y194310D01*
X993902Y181610D01*
X285369Y260350D02*
X190246Y165227D01*
X285369Y260350D02*
X899668Y260350D01*
X914400Y245618D02*
X980694Y245618D01*
X993902Y232410D01*
X914400Y245618D02*
X899668Y260350D01*
X813562Y133350D02*
X892302Y54610D01*
X730123Y133350D02*
X698246Y165227D01*
X730123Y133350D02*
X813562Y133350D01*
X749173Y139700D02*
X723646Y165227D01*
X832612Y139700D02*
X917702Y54610D01*
X832612Y139700D02*
X749173Y139700D01*
X851662Y146050D02*
X943102Y54610D01*
X768223Y146050D02*
X749046Y165227D01*
X768223Y146050D02*
X851662Y146050D01*
X177419Y508000D02*
X63246Y393827D01*
X177419Y508000D02*
X314452Y508000D01*
X343662Y537210D01*
X196469Y501650D02*
X88646Y393827D01*
X196469Y501650D02*
X333502Y501650D01*
X369062Y537210D01*
X215519Y495300D02*
X114046Y393827D01*
X215519Y495300D02*
X352552Y495300D01*
X394462Y537210D01*
X234569Y488950D02*
X139446Y393827D01*
X234569Y488950D02*
X371602Y488950D01*
X419862Y537210D01*
X253619Y482600D02*
X164846Y393827D01*
X253619Y482600D02*
X390652Y482600D01*
X445262Y537210D01*
X485902Y537210D02*
X425196Y476504D01*
X272923Y476504D02*
X190246Y393827D01*
X272923Y476504D02*
X425196Y476504D01*
X443992Y469900D02*
X511302Y537210D01*
X443992Y469900D02*
X291719Y469900D01*
X215646Y393827D01*
X463042Y463550D02*
X536702Y537210D01*
X463042Y463550D02*
X310769Y463550D01*
X241046Y393827D01*
X266446Y393827D02*
X329819Y457200D01*
X482092Y457200D01*
X562102Y537210D01*
X587502Y537210D02*
X501142Y450850D01*
X348869Y450850D01*
X291846Y393827D01*
X317246Y393827D02*
X367919Y444500D01*
X520192Y444500D01*
X612902Y537210D01*
X418719Y215900D02*
X368046Y165227D01*
X418719Y215900D02*
X857250Y215900D01*
X929640Y143510D02*
X981202Y143510D01*
X929640Y143510D02*
X857250Y215900D01*
X981202Y143510D02*
X993902Y130810D01*
X361569Y234950D02*
X291846Y165227D01*
X361569Y234950D02*
X876300Y234950D01*
X929640Y181610D01*
X968502Y181610D01*
X380619Y228600D02*
X317246Y165227D01*
X380619Y228600D02*
X869950Y228600D01*
X993140Y156210D02*
X993902Y156210D01*
X993140Y156210D02*
X979932Y169418D01*
X929132Y169418D01*
X869950Y228600D01*
X399669Y222250D02*
X342646Y165227D01*
X399669Y222250D02*
X863600Y222250D01*
X929640Y156210D02*
X968502Y156210D01*
X929640Y156210D02*
X863600Y222250D01*
M02*
