G04 EAGLE Gerber RS-274X export*
G75*
%MOMM*%
%FSLAX34Y34*%
%LPD*%
%IN*%
%IPPOS*%
%AMOC8*
5,1,8,0,0,1.08239X$1,22.5*%
G01*
%ADD10C,0.254000*%


D10*
X28702Y29210D02*
X1019302Y29210D01*
X1019302Y41910D01*
X1044702Y67310D01*
X1044702Y410210D01*
X1019302Y435610D01*
X1019302Y537210D01*
X993902Y562610D01*
X28702Y562610D01*
X28702Y29210D01*
X197102Y536686D02*
X197034Y535641D01*
X196897Y534602D01*
X196692Y533575D01*
X196421Y532563D01*
X196085Y531571D01*
X195684Y530603D01*
X195220Y529664D01*
X194697Y528756D01*
X194115Y527885D01*
X193477Y527054D01*
X192786Y526267D01*
X192045Y525526D01*
X191258Y524835D01*
X190427Y524198D01*
X189556Y523616D01*
X188648Y523092D01*
X187709Y522628D01*
X186741Y522227D01*
X185749Y521891D01*
X184737Y521620D01*
X183710Y521415D01*
X182671Y521279D01*
X181626Y521210D01*
X180578Y521210D01*
X179533Y521279D01*
X178494Y521415D01*
X177467Y521620D01*
X176455Y521891D01*
X175463Y522227D01*
X174495Y522628D01*
X173556Y523092D01*
X172648Y523616D01*
X171777Y524198D01*
X170946Y524835D01*
X170159Y525526D01*
X169418Y526267D01*
X168727Y527054D01*
X168090Y527885D01*
X167508Y528756D01*
X166984Y529664D01*
X166520Y530603D01*
X166119Y531571D01*
X165783Y532563D01*
X165512Y533575D01*
X165307Y534602D01*
X165171Y535641D01*
X165102Y536686D01*
X165102Y537734D01*
X165171Y538779D01*
X165307Y539818D01*
X165512Y540845D01*
X165783Y541857D01*
X166119Y542849D01*
X166520Y543817D01*
X166984Y544756D01*
X167508Y545664D01*
X168090Y546535D01*
X168727Y547366D01*
X169418Y548153D01*
X170159Y548894D01*
X170946Y549585D01*
X171777Y550223D01*
X172648Y550805D01*
X173556Y551328D01*
X174495Y551792D01*
X175463Y552193D01*
X176455Y552529D01*
X177467Y552800D01*
X178494Y553005D01*
X179533Y553142D01*
X180578Y553210D01*
X181626Y553210D01*
X182671Y553142D01*
X183710Y553005D01*
X184737Y552800D01*
X185749Y552529D01*
X186741Y552193D01*
X187709Y551792D01*
X188648Y551328D01*
X189556Y550805D01*
X190427Y550223D01*
X191258Y549585D01*
X192045Y548894D01*
X192786Y548153D01*
X193477Y547366D01*
X194115Y546535D01*
X194697Y545664D01*
X195220Y544756D01*
X195684Y543817D01*
X196085Y542849D01*
X196421Y541857D01*
X196692Y540845D01*
X196897Y539818D01*
X197034Y538779D01*
X197102Y537734D01*
X197102Y536686D01*
X184402Y54086D02*
X184334Y53041D01*
X184197Y52002D01*
X183992Y50975D01*
X183721Y49963D01*
X183385Y48971D01*
X182984Y48003D01*
X182520Y47064D01*
X181997Y46156D01*
X181415Y45285D01*
X180777Y44454D01*
X180086Y43667D01*
X179345Y42926D01*
X178558Y42235D01*
X177727Y41598D01*
X176856Y41016D01*
X175948Y40492D01*
X175009Y40028D01*
X174041Y39627D01*
X173049Y39291D01*
X172037Y39020D01*
X171010Y38815D01*
X169971Y38679D01*
X168926Y38610D01*
X167878Y38610D01*
X166833Y38679D01*
X165794Y38815D01*
X164767Y39020D01*
X163755Y39291D01*
X162763Y39627D01*
X161795Y40028D01*
X160856Y40492D01*
X159948Y41016D01*
X159077Y41598D01*
X158246Y42235D01*
X157459Y42926D01*
X156718Y43667D01*
X156027Y44454D01*
X155390Y45285D01*
X154808Y46156D01*
X154284Y47064D01*
X153820Y48003D01*
X153419Y48971D01*
X153083Y49963D01*
X152812Y50975D01*
X152607Y52002D01*
X152471Y53041D01*
X152402Y54086D01*
X152402Y55134D01*
X152471Y56179D01*
X152607Y57218D01*
X152812Y58245D01*
X153083Y59257D01*
X153419Y60249D01*
X153820Y61217D01*
X154284Y62156D01*
X154808Y63064D01*
X155390Y63935D01*
X156027Y64766D01*
X156718Y65553D01*
X157459Y66294D01*
X158246Y66985D01*
X159077Y67623D01*
X159948Y68205D01*
X160856Y68728D01*
X161795Y69192D01*
X162763Y69593D01*
X163755Y69929D01*
X164767Y70200D01*
X165794Y70405D01*
X166833Y70542D01*
X167878Y70610D01*
X168926Y70610D01*
X169971Y70542D01*
X171010Y70405D01*
X172037Y70200D01*
X173049Y69929D01*
X174041Y69593D01*
X175009Y69192D01*
X175948Y68728D01*
X176856Y68205D01*
X177727Y67623D01*
X178558Y66985D01*
X179345Y66294D01*
X180086Y65553D01*
X180777Y64766D01*
X181415Y63935D01*
X181997Y63064D01*
X182520Y62156D01*
X182984Y61217D01*
X183385Y60249D01*
X183721Y59257D01*
X183992Y58245D01*
X184197Y57218D01*
X184334Y56179D01*
X184402Y55134D01*
X184402Y54086D01*
X946402Y536686D02*
X946334Y535641D01*
X946197Y534602D01*
X945992Y533575D01*
X945721Y532563D01*
X945385Y531571D01*
X944984Y530603D01*
X944520Y529664D01*
X943997Y528756D01*
X943415Y527885D01*
X942777Y527054D01*
X942086Y526267D01*
X941345Y525526D01*
X940558Y524835D01*
X939727Y524198D01*
X938856Y523616D01*
X937948Y523092D01*
X937009Y522628D01*
X936041Y522227D01*
X935049Y521891D01*
X934037Y521620D01*
X933010Y521415D01*
X931971Y521279D01*
X930926Y521210D01*
X929878Y521210D01*
X928833Y521279D01*
X927794Y521415D01*
X926767Y521620D01*
X925755Y521891D01*
X924763Y522227D01*
X923795Y522628D01*
X922856Y523092D01*
X921948Y523616D01*
X921077Y524198D01*
X920246Y524835D01*
X919459Y525526D01*
X918718Y526267D01*
X918027Y527054D01*
X917390Y527885D01*
X916808Y528756D01*
X916284Y529664D01*
X915820Y530603D01*
X915419Y531571D01*
X915083Y532563D01*
X914812Y533575D01*
X914607Y534602D01*
X914471Y535641D01*
X914402Y536686D01*
X914402Y537734D01*
X914471Y538779D01*
X914607Y539818D01*
X914812Y540845D01*
X915083Y541857D01*
X915419Y542849D01*
X915820Y543817D01*
X916284Y544756D01*
X916808Y545664D01*
X917390Y546535D01*
X918027Y547366D01*
X918718Y548153D01*
X919459Y548894D01*
X920246Y549585D01*
X921077Y550223D01*
X921948Y550805D01*
X922856Y551328D01*
X923795Y551792D01*
X924763Y552193D01*
X925755Y552529D01*
X926767Y552800D01*
X927794Y553005D01*
X928833Y553142D01*
X929878Y553210D01*
X930926Y553210D01*
X931971Y553142D01*
X933010Y553005D01*
X934037Y552800D01*
X935049Y552529D01*
X936041Y552193D01*
X937009Y551792D01*
X937948Y551328D01*
X938856Y550805D01*
X939727Y550223D01*
X940558Y549585D01*
X941345Y548894D01*
X942086Y548153D01*
X942777Y547366D01*
X943415Y546535D01*
X943997Y545664D01*
X944520Y544756D01*
X944984Y543817D01*
X945385Y542849D01*
X945721Y541857D01*
X945992Y540845D01*
X946197Y539818D01*
X946334Y538779D01*
X946402Y537734D01*
X946402Y536686D01*
X1009902Y54086D02*
X1009834Y53041D01*
X1009697Y52002D01*
X1009492Y50975D01*
X1009221Y49963D01*
X1008885Y48971D01*
X1008484Y48003D01*
X1008020Y47064D01*
X1007497Y46156D01*
X1006915Y45285D01*
X1006277Y44454D01*
X1005586Y43667D01*
X1004845Y42926D01*
X1004058Y42235D01*
X1003227Y41598D01*
X1002356Y41016D01*
X1001448Y40492D01*
X1000509Y40028D01*
X999541Y39627D01*
X998549Y39291D01*
X997537Y39020D01*
X996510Y38815D01*
X995471Y38679D01*
X994426Y38610D01*
X993378Y38610D01*
X992333Y38679D01*
X991294Y38815D01*
X990267Y39020D01*
X989255Y39291D01*
X988263Y39627D01*
X987295Y40028D01*
X986356Y40492D01*
X985448Y41016D01*
X984577Y41598D01*
X983746Y42235D01*
X982959Y42926D01*
X982218Y43667D01*
X981527Y44454D01*
X980890Y45285D01*
X980308Y46156D01*
X979784Y47064D01*
X979320Y48003D01*
X978919Y48971D01*
X978583Y49963D01*
X978312Y50975D01*
X978107Y52002D01*
X977971Y53041D01*
X977902Y54086D01*
X977902Y55134D01*
X977971Y56179D01*
X978107Y57218D01*
X978312Y58245D01*
X978583Y59257D01*
X978919Y60249D01*
X979320Y61217D01*
X979784Y62156D01*
X980308Y63064D01*
X980890Y63935D01*
X981527Y64766D01*
X982218Y65553D01*
X982959Y66294D01*
X983746Y66985D01*
X984577Y67623D01*
X985448Y68205D01*
X986356Y68728D01*
X987295Y69192D01*
X988263Y69593D01*
X989255Y69929D01*
X990267Y70200D01*
X991294Y70405D01*
X992333Y70542D01*
X993378Y70610D01*
X994426Y70610D01*
X995471Y70542D01*
X996510Y70405D01*
X997537Y70200D01*
X998549Y69929D01*
X999541Y69593D01*
X1000509Y69192D01*
X1001448Y68728D01*
X1002356Y68205D01*
X1003227Y67623D01*
X1004058Y66985D01*
X1004845Y66294D01*
X1005586Y65553D01*
X1006277Y64766D01*
X1006915Y63935D01*
X1007497Y63064D01*
X1008020Y62156D01*
X1008484Y61217D01*
X1008885Y60249D01*
X1009221Y59257D01*
X1009492Y58245D01*
X1009697Y57218D01*
X1009834Y56179D01*
X1009902Y55134D01*
X1009902Y54086D01*
M02*
