G04 EAGLE Gerber RS-274X export*
G75*
%MOMM*%
%FSLAX34Y34*%
%LPD*%
%INSoldermask Bottom*%
%IPPOS*%
%AMOC8*
5,1,8,0,0,1.08239X$1,22.5*%
G01*
%ADD10C,2.082800*%
%ADD11P,2.254402X8X112.500000*%
%ADD12C,3.403200*%
%ADD13C,1.524000*%


D10*
X790702Y54610D03*
X816102Y54610D03*
X841502Y54610D03*
X866902Y54610D03*
X892302Y54610D03*
X917702Y54610D03*
X943102Y54610D03*
X765302Y54610D03*
X739902Y537210D03*
X765302Y537210D03*
X790702Y537210D03*
X816102Y537210D03*
X841502Y537210D03*
X866902Y537210D03*
X892302Y537210D03*
X714502Y537210D03*
X562102Y54610D03*
X587502Y54610D03*
X612902Y54610D03*
X638302Y54610D03*
X663702Y54610D03*
X689102Y54610D03*
X714502Y54610D03*
X536702Y54610D03*
X511302Y537210D03*
X536702Y537210D03*
X562102Y537210D03*
X587502Y537210D03*
X612902Y537210D03*
X638302Y537210D03*
X663702Y537210D03*
X485902Y537210D03*
X292862Y537210D03*
X318262Y537210D03*
X343662Y537210D03*
X369062Y537210D03*
X394462Y537210D03*
X419862Y537210D03*
X445262Y537210D03*
X267462Y537210D03*
D11*
X993902Y334010D03*
X968502Y334010D03*
X993902Y359410D03*
X968502Y359410D03*
X993902Y384810D03*
X968502Y384810D03*
X993902Y410210D03*
X968502Y410210D03*
X993902Y435610D03*
X968502Y435610D03*
X993902Y461010D03*
X968502Y461010D03*
X993902Y486410D03*
X968502Y486410D03*
X993902Y511810D03*
X968502Y511810D03*
X993902Y130810D03*
X968502Y130810D03*
X993902Y156210D03*
X968502Y156210D03*
X993902Y181610D03*
X968502Y181610D03*
X993902Y207010D03*
X968502Y207010D03*
X993902Y232410D03*
X968502Y232410D03*
X993902Y257810D03*
X968502Y257810D03*
X993902Y283210D03*
X968502Y283210D03*
X993902Y308610D03*
X968502Y308610D03*
D10*
X968502Y105410D03*
X993902Y105410D03*
X968502Y537210D03*
X993902Y537210D03*
X358902Y54610D03*
X384302Y54610D03*
X409702Y54610D03*
X435102Y54610D03*
X460502Y54610D03*
X485902Y54610D03*
D12*
X181102Y537210D03*
X168402Y54610D03*
X930402Y537210D03*
X993902Y54610D03*
D10*
X333502Y54610D03*
X308102Y54610D03*
X242062Y537210D03*
X216662Y537210D03*
D13*
X63246Y171831D02*
X63246Y158623D01*
X88646Y158623D02*
X88646Y171831D01*
X114046Y171831D02*
X114046Y158623D01*
X139446Y158623D02*
X139446Y171831D01*
X164846Y171831D02*
X164846Y158623D01*
X190246Y158623D02*
X190246Y171831D01*
X215646Y171831D02*
X215646Y158623D01*
X241046Y158623D02*
X241046Y171831D01*
X266446Y171831D02*
X266446Y158623D01*
X291846Y158623D02*
X291846Y171831D01*
X317246Y171831D02*
X317246Y158623D01*
X342646Y158623D02*
X342646Y171831D01*
X368046Y171831D02*
X368046Y158623D01*
X393446Y158623D02*
X393446Y171831D01*
X418846Y171831D02*
X418846Y158623D01*
X444246Y158623D02*
X444246Y171831D01*
X469646Y171831D02*
X469646Y158623D01*
X495046Y158623D02*
X495046Y171831D01*
X520446Y171831D02*
X520446Y158623D01*
X850646Y158623D02*
X850646Y171831D01*
X850646Y387223D02*
X850646Y400431D01*
X520446Y400431D02*
X520446Y387223D01*
X495046Y387223D02*
X495046Y400431D01*
X469646Y400431D02*
X469646Y387223D01*
X444246Y387223D02*
X444246Y400431D01*
X418846Y400431D02*
X418846Y387223D01*
X393446Y387223D02*
X393446Y400431D01*
X368046Y400431D02*
X368046Y387223D01*
X342646Y387223D02*
X342646Y400431D01*
X317246Y400431D02*
X317246Y387223D01*
X291846Y387223D02*
X291846Y400431D01*
X266446Y400431D02*
X266446Y387223D01*
X241046Y387223D02*
X241046Y400431D01*
X215646Y400431D02*
X215646Y387223D01*
X190246Y387223D02*
X190246Y400431D01*
X164846Y400431D02*
X164846Y387223D01*
X139446Y387223D02*
X139446Y400431D01*
X114046Y400431D02*
X114046Y387223D01*
X88646Y387223D02*
X88646Y400431D01*
X63246Y400431D02*
X63246Y387223D01*
X545846Y171831D02*
X545846Y158623D01*
X571246Y158623D02*
X571246Y171831D01*
X596646Y171831D02*
X596646Y158623D01*
X622046Y158623D02*
X622046Y171831D01*
X647446Y171831D02*
X647446Y158623D01*
X672846Y158623D02*
X672846Y171831D01*
X698246Y171831D02*
X698246Y158623D01*
X723646Y158623D02*
X723646Y171831D01*
X749046Y171831D02*
X749046Y158623D01*
X774446Y158623D02*
X774446Y171831D01*
X799846Y171831D02*
X799846Y158623D01*
X825246Y158623D02*
X825246Y171831D01*
X545846Y387223D02*
X545846Y400431D01*
X571246Y400431D02*
X571246Y387223D01*
X596646Y387223D02*
X596646Y400431D01*
X622046Y400431D02*
X622046Y387223D01*
X647446Y387223D02*
X647446Y400431D01*
X672846Y400431D02*
X672846Y387223D01*
X698246Y387223D02*
X698246Y400431D01*
X723646Y400431D02*
X723646Y387223D01*
X749046Y387223D02*
X749046Y400431D01*
X774446Y400431D02*
X774446Y387223D01*
X799846Y387223D02*
X799846Y400431D01*
X825246Y400431D02*
X825246Y387223D01*
M02*
