M48
;GenerationSoftware,Autodesk,EAGLE,9.6.2*%
;CreationDate,2020-08-14T04:25:18Z*%
FMAT,2
ICI,OFF
METRIC,TZ,000.000
T3C0.813
T2C1.016
T1C3.200
%
G90
M71
T1
X18110Y53721
X16840Y5461
X93040Y53721
X99390Y5461
T2
X79070Y5461
X81610Y5461
X84150Y5461
X86690Y5461
X89230Y5461
X91770Y5461
X94310Y5461
X76530Y5461
X73990Y53721
X76530Y53721
X79070Y53721
X81610Y53721
X84150Y53721
X86690Y53721
X89230Y53721
X71450Y53721
X56210Y5461
X58750Y5461
X61290Y5461
X63830Y5461
X66370Y5461
X68910Y5461
X71450Y5461
X53670Y5461
X51130Y53721
X53670Y53721
X56210Y53721
X58750Y53721
X61290Y53721
X63830Y53721
X66370Y53721
X48590Y53721
X29286Y53721
X31826Y53721
X34366Y53721
X36906Y53721
X39446Y53721
X41986Y53721
X44526Y53721
X26746Y53721
X99390Y33401
X96850Y33401
X99390Y35941
X96850Y35941
X99390Y38481
X96850Y38481
X99390Y41021
X96850Y41021
X99390Y43561
X96850Y43561
X99390Y46101
X96850Y46101
X99390Y48641
X96850Y48641
X99390Y51181
X96850Y51181
X99390Y13081
X96850Y13081
X99390Y15621
X96850Y15621
X99390Y18161
X96850Y18161
X99390Y20701
X96850Y20701
X99390Y23241
X96850Y23241
X99390Y25781
X96850Y25781
X99390Y28321
X96850Y28321
X99390Y30861
X96850Y30861
X96850Y10541
X99390Y10541
X96850Y53721
X99390Y53721
X35890Y5461
X38430Y5461
X40970Y5461
X43510Y5461
X46050Y5461
X48590Y5461
X33350Y5461
X30810Y5461
X24206Y53721
X21666Y53721
T3
X6325Y16523
X8865Y16523
X11405Y16523
X13945Y16523
X16485Y16523
X19025Y16523
X21565Y16523
X24105Y16523
X26645Y16523
X29185Y16523
X31725Y16523
X34265Y16523
X36805Y16523
X39345Y16523
X41885Y16523
X44425Y16523
X46965Y16523
X49505Y16523
X52045Y16523
X85065Y16523
X85065Y39383
X52045Y39383
X49505Y39383
X46965Y39383
X44425Y39383
X41885Y39383
X39345Y39383
X36805Y39383
X34265Y39383
X31725Y39383
X29185Y39383
X26645Y39383
X24105Y39383
X21565Y39383
X19025Y39383
X16485Y39383
X13945Y39383
X11405Y39383
X8865Y39383
X6325Y39383
X54585Y16523
X57125Y16523
X59665Y16523
X62205Y16523
X64745Y16523
X67285Y16523
X69825Y16523
X72365Y16523
X74905Y16523
X77445Y16523
X79985Y16523
X82525Y16523
X54585Y39383
X57125Y39383
X59665Y39383
X62205Y39383
X64745Y39383
X67285Y39383
X69825Y39383
X72365Y39383
X74905Y39383
X77445Y39383
X79985Y39383
X82525Y39383
M30